# xmcd
#
# Track frame offsets:
#	150
#	12417
#	25634
#	39123
#	55116
#	75513
#	85071
#	100975
#	119021
#	129978
#
# Disc length: 1966 seconds
#
# Revision: 0
# Processed by: cddbd v1.4PL0 Copyright (c) Steve Scherf et al.
# Submitted via: dBpowerAMP V4.0
#
DISCID=6c07ac0a
DTITLE=Guylaine Tanguay - Simplement
DYEAR=1900
DGENRE=
TTITLE0=Stand By Your Man
TTITLE1=Le Prisonnier
TTITLE2=L'Enfant Do
TTITLE3=On N'a Pas Le Droit
TTITLE4=Tant Qu'il Restera
TTITLE5=Le Lumberjack
TTITLE6=Padré
TTITLE7=Break It To Me Quickly
TTITLE8=Frappe Des Mains
TTITLE9=Offre-Moi Cette Danse
EXTD=
EXTT0=
EXTT1=
EXTT2=
EXTT3=
EXTT4=
EXTT5=
EXTT6=
EXTT7=
EXTT8=
EXTT9=
PLAYORDER=
